<?xml version="1.0" encoding="UTF-8"?><svg id="a" xmlns="http://www.w3.org/2000/svg" xmlns:xlink="http://www.w3.org/1999/xlink" viewBox="0 0 500 500"><defs><linearGradient id="b" x1="250" y1="213.88" x2="250" y2="319.98" gradientUnits="userSpaceOnUse"><stop offset="0" stop-color="#848c97"/><stop offset="1" stop-color="#59606c"/></linearGradient></defs><polygon points="0 252.94 0 247.91 17.84 226.86 43.92 226.86 43.92 200.93 40.45 200.93 40.45 191.93 82.11 191.93 82.11 200.93 76.44 200.93 82.8 207.64 82.8 273.08 94.69 273.08 94.69 236.04 113.91 251.65 113.91 276.28 125.34 276.28 125.34 242.88 143.18 242.88 143.18 226.08 166.51 209.93 166.51 226.4 184.81 244.71 184.81 257.06 199.91 257.06 199.91 230.52 212.26 230.52 218.66 224.12 234.68 224.12 241.08 230.52 255.26 230.52 255.26 268.96 274.47 268.96 274.47 241.96 293.69 235.1 299.18 235.1 299.18 241.96 304.67 241.96 304.67 272.16 334.4 272.16 334.4 220.91 347.21 208.1 360.48 221.37 360.48 244.71 389.3 244.71 403.48 230.52 403.48 204.9 413.54 204.9 425.89 209.93 425.89 284.52 445.33 284.52 445.33 256.83 462.49 239.67 462.49 225.08 458.49 225.08 458.49 219.04 485.01 219.04 485.01 225.08 481.02 225.08 481.02 229.38 500 248.37 500 380 0 380 0 258.44 6.4 258.44 6.4 252.94 0 252.94" style="fill:url(#b);"/></svg>