<?xml version="1.0" encoding="UTF-8"?><svg id="a" xmlns="http://www.w3.org/2000/svg" xmlns:xlink="http://www.w3.org/1999/xlink" viewBox="0 0 500 500"><defs><linearGradient id="b" x1="250" y1="264.08" x2="250" y2="366.53" gradientUnits="userSpaceOnUse"><stop offset="0" stop-color="#59606c"/><stop offset="1" stop-color="#2e3541"/></linearGradient><linearGradient id="c" x1="479.72" y1="264.08" x2="479.72" y2="366.53" xlink:href="#b"/><linearGradient id="d" x1="429.27" y1="264.08" x2="429.27" y2="366.53" xlink:href="#b"/><linearGradient id="e" x1="438.58" y1="264.08" x2="438.58" y2="366.53" xlink:href="#b"/><linearGradient id="f" x1="363.3" y1="264.08" x2="363.3" y2="366.53" xlink:href="#b"/><linearGradient id="g" x1="255.25" y1="264.08" x2="255.25" y2="366.53" xlink:href="#b"/><linearGradient id="h" x1="20.77" y1="264.08" x2="20.77" y2="366.53" xlink:href="#b"/><linearGradient id="i" x1="20.77" y1="264.08" x2="20.77" y2="366.53" xlink:href="#b"/><linearGradient id="j" x1="20.33" y1="264.08" x2="20.33" y2="366.53" xlink:href="#b"/><linearGradient id="k" x1="95.92" y1="264.08" x2="95.92" y2="366.53" xlink:href="#b"/><linearGradient id="l" x1="125.01" y1="264.08" x2="125.01" y2="366.53" xlink:href="#b"/><linearGradient id="m" x1="215.51" y1="264.08" x2="215.51" y2="366.53" xlink:href="#b"/><linearGradient id="n" x1="165.06" y1="264.08" x2="165.06" y2="366.53" xlink:href="#b"/><linearGradient id="o" x1="165.06" y1="264.08" x2="165.06" y2="366.53" xlink:href="#b"/><linearGradient id="p" x1="52.64" y1="264.08" x2="52.64" y2="366.53" xlink:href="#b"/><linearGradient id="q" x1="59.03" y1="264.08" x2="59.03" y2="366.53" xlink:href="#b"/><linearGradient id="r" x1="58.83" y1="264.08" x2="58.83" y2="366.53" xlink:href="#b"/><linearGradient id="s" x1="312.41" y1="264.08" x2="312.41" y2="366.53" gradientTransform="translate(624.82 660.07) rotate(-180)" xlink:href="#b"/><linearGradient id="t" x1="306.02" y1="264.08" x2="306.02" y2="366.53" gradientTransform="translate(612.04 541.15) rotate(-180)" xlink:href="#b"/><linearGradient id="u" x1="306.22" y1="264.08" x2="306.22" y2="366.53" gradientTransform="translate(612.43 531.05) rotate(-180)" xlink:href="#b"/></defs><rect x="12.9" y="336.35" width="474.2" height="74.71" style="fill:url(#b);"/><polygon points="500 412.27 459.43 412.27 459.43 292.03 500 320.58 500 412.27" style="fill:url(#c);"/><rect x="407.66" y="275.3" width="43.23" height="111.35" style="fill:url(#d);"/><rect x="430.98" y="267.73" width="15.18" height="7.57" style="fill:url(#e);"/><rect x="341.69" y="288.05" width="43.23" height="111.35" style="fill:url(#f);"/><rect x="233.64" y="288.05" width="43.23" height="111.35" style="fill:url(#g);"/><rect y="303.81" width="41.55" height="4.32" style="fill:url(#h);"/><rect x="4.26" y="306.57" width="33.02" height="6.13" style="fill:url(#i);"/><rect x=".16" y="310.89" width="40.33" height="88.89" style="fill:url(#j);"/><rect x="80.27" y="257.13" width="31.29" height="146.05" style="fill:url(#k);"/><polygon points="138.45 403.18 111.56 403.18 111.56 282.94 138.45 311.49 138.45 403.18" style="fill:url(#l);"/><polygon points="234.99 392.65 196.02 392.65 196.02 283.24 215.51 257.98 234.99 283.24 234.99 392.65" style="fill:url(#m);"/><polygon points="185.64 295.13 144.47 295.13 153.26 279.77 176.86 279.77 185.64 295.13" style="fill:url(#n);"/><rect x="144.47" y="295.13" width="41.16" height="102.67" style="fill:url(#o);"/><rect x="31.03" y="278.16" width="43.23" height="111.35" style="fill:url(#p);"/><rect x="48.53" y="270.59" width="21" height="7.57" style="fill:url(#q);"/><rect x="44.81" y="266.8" width="28.05" height="5.05" style="fill:url(#r);"/><rect x="290.8" y="274.36" width="43.23" height="111.35" transform="translate(624.82 660.07) rotate(180)" style="fill:url(#s);"/><rect x="295.52" y="266.79" width="21" height="7.57" transform="translate(612.04 541.15) rotate(180)" style="fill:url(#t);"/><rect x="292.19" y="263" width="28.05" height="5.05" transform="translate(612.43 531.05) rotate(180)" style="fill:url(#u);"/></svg>