<?xml version="1.0" encoding="UTF-8"?><svg id="a" xmlns="http://www.w3.org/2000/svg" xmlns:xlink="http://www.w3.org/1999/xlink" viewBox="0 0 500 500"><defs><linearGradient id="b" x1="250" y1="174.1" x2="250" y2="270.71" gradientTransform="translate(500 564.85) rotate(-180)" gradientUnits="userSpaceOnUse"><stop offset="0" stop-color="#afb7c2"/><stop offset="1" stop-color="#848c97"/></linearGradient><linearGradient id="c" x1="20.28" y1="174.1" x2="20.28" y2="270.71" gradientTransform="matrix(1,0,0,1,0,0)" xlink:href="#b"/><linearGradient id="d" x1="70.73" y1="174.1" x2="70.73" y2="270.71" gradientTransform="translate(141.45 479.39) rotate(-180)" xlink:href="#b"/><linearGradient id="e" x1="61.42" y1="174.1" x2="61.42" y2="270.71" gradientTransform="translate(122.85 360.47) rotate(-180)" xlink:href="#b"/><linearGradient id="f" x1="136.7" y1="174.1" x2="136.7" y2="270.71" gradientTransform="translate(273.39 504.88) rotate(-180)" xlink:href="#b"/><linearGradient id="g" x1="244.75" y1="174.1" x2="244.75" y2="270.71" gradientTransform="translate(489.5 504.88) rotate(-180)" xlink:href="#b"/><linearGradient id="h" x1="479.23" y1="174.1" x2="479.23" y2="270.71" gradientTransform="translate(958.45 429.37) rotate(-180)" xlink:href="#b"/><linearGradient id="i" x1="479.23" y1="174.1" x2="479.23" y2="270.71" gradientTransform="translate(958.45 436.7) rotate(-180)" xlink:href="#b"/><linearGradient id="j" x1="479.67" y1="174.1" x2="479.67" y2="270.71" gradientTransform="translate(959.34 528.11) rotate(-180)" xlink:href="#b"/><linearGradient id="k" x1="404.08" y1="174.1" x2="404.08" y2="270.71" gradientTransform="translate(808.17 477.75) rotate(-180)" xlink:href="#b"/><linearGradient id="l" x1="374.99" y1="174.1" x2="374.99" y2="270.71" gradientTransform="matrix(1,0,0,1,0,0)" xlink:href="#b"/><linearGradient id="m" x1="284.49" y1="174.1" x2="284.49" y2="270.71" gradientTransform="matrix(1,0,0,1,0,0)" xlink:href="#b"/><linearGradient id="n" x1="334.94" y1="174.1" x2="334.94" y2="270.71" gradientTransform="matrix(1,0,0,1,0,0)" xlink:href="#b"/><linearGradient id="o" x1="334.94" y1="174.1" x2="334.94" y2="270.71" gradientTransform="translate(669.89 510.36) rotate(-180)" xlink:href="#b"/><linearGradient id="p" x1="447.36" y1="174.1" x2="447.36" y2="270.71" gradientTransform="translate(894.72 485.11) rotate(-180)" xlink:href="#b"/><linearGradient id="q" x1="440.97" y1="174.1" x2="440.97" y2="270.71" gradientTransform="translate(881.94 366.18) rotate(-180)" xlink:href="#b"/><linearGradient id="r" x1="441.17" y1="174.1" x2="441.17" y2="270.71" gradientTransform="translate(882.33 356.08) rotate(-180)" xlink:href="#b"/><linearGradient id="s" x1="187.59" y1="174.1" x2="187.59" y2="270.71" gradientTransform="matrix(1,0,0,1,0,0)" xlink:href="#b"/><linearGradient id="t" x1="193.98" y1="174.1" x2="193.98" y2="270.71" gradientTransform="matrix(1,0,0,1,0,0)" xlink:href="#b"/><linearGradient id="u" x1="193.78" y1="174.1" x2="193.78" y2="270.71" gradientTransform="matrix(1,0,0,1,0,0)" xlink:href="#b"/></defs><rect x="12.9" y="245.07" width="474.2" height="74.71" transform="translate(500 564.85) rotate(180)" style="fill:url(#b);"/><polygon points="0 320.99 40.57 320.99 40.57 200.74 0 229.3 0 320.99" style="fill:url(#c);"/><rect x="49.11" y="184.02" width="43.23" height="111.35" transform="translate(141.45 479.39) rotate(180)" style="fill:url(#d);"/><rect x="53.83" y="176.45" width="15.18" height="7.57" transform="translate(122.85 360.47) rotate(180)" style="fill:url(#e);"/><rect x="115.08" y="196.77" width="43.23" height="111.35" transform="translate(273.39 504.88) rotate(180)" style="fill:url(#f);"/><rect x="223.14" y="196.77" width="43.23" height="111.35" transform="translate(489.5 504.88) rotate(180)" style="fill:url(#g);"/><rect x="458.45" y="212.53" width="41.55" height="4.32" transform="translate(958.45 429.37) rotate(180)" style="fill:url(#h);"/><rect x="462.72" y="215.29" width="33.02" height="6.13" transform="translate(958.45 436.7) rotate(180)" style="fill:url(#i);"/><rect x="459.5" y="219.61" width="40.33" height="88.89" transform="translate(959.34 528.11) rotate(180)" style="fill:url(#j);"/><rect x="388.44" y="165.85" width="31.29" height="146.04" transform="translate(808.17 477.75) rotate(180)" style="fill:url(#k);"/><polygon points="361.55 311.9 388.44 311.9 388.44 191.66 361.55 220.21 361.55 311.9" style="fill:url(#l);"/><polygon points="265.01 301.37 303.98 301.37 303.98 191.95 284.49 166.7 265.01 191.95 265.01 301.37" style="fill:url(#m);"/><polygon points="314.36 203.85 355.53 203.85 346.74 188.49 323.14 188.49 314.36 203.85" style="fill:url(#n);"/><rect x="314.36" y="203.85" width="41.16" height="102.67" transform="translate(669.89 510.36) rotate(180)" style="fill:url(#o);"/><rect x="425.75" y="186.88" width="43.23" height="111.35" transform="translate(894.72 485.11) rotate(180)" style="fill:url(#p);"/><rect x="430.47" y="179.3" width="21" height="7.57" transform="translate(881.94 366.18) rotate(180)" style="fill:url(#q);"/><rect x="427.14" y="175.52" width="28.05" height="5.05" transform="translate(882.33 356.08) rotate(180)" style="fill:url(#r);"/><rect x="165.97" y="183.08" width="43.23" height="111.35" style="fill:url(#s);"/><rect x="183.48" y="175.51" width="21" height="7.57" style="fill:url(#t);"/><rect x="179.76" y="171.72" width="28.05" height="5.05" style="fill:url(#u);"/></svg>