<?xml version="1.0" encoding="UTF-8"?><svg id="a" xmlns="http://www.w3.org/2000/svg" xmlns:xlink="http://www.w3.org/1999/xlink" viewBox="0 0 500 500"><defs><linearGradient id="b" x1="250" y1="167.47" x2="250" y2="361.72" gradientUnits="userSpaceOnUse"><stop offset="0" stop-color="#2e3541"/><stop offset="1" stop-color="#030a16"/></linearGradient><linearGradient id="c" x1="232.45" y1="167.47" x2="232.45" y2="361.72" xlink:href="#b"/><linearGradient id="d" x1="232.45" y1="167.47" x2="232.45" y2="361.72" xlink:href="#b"/><linearGradient id="e" x1="232.45" y1="167.47" x2="232.45" y2="361.72" xlink:href="#b"/><linearGradient id="f" x1="230.06" y1="167.47" x2="230.06" y2="361.72" xlink:href="#b"/><linearGradient id="g" x1="232.93" y1="167.47" x2="232.93" y2="361.72" xlink:href="#b"/><linearGradient id="h" x1="247.68" y1="167.47" x2="247.68" y2="361.72" xlink:href="#b"/><linearGradient id="i" x1="251.71" y1="167.47" x2="251.71" y2="361.72" xlink:href="#b"/><linearGradient id="j" x1="254.99" y1="167.47" x2="254.99" y2="361.72" xlink:href="#b"/><linearGradient id="k" x1="256.48" y1="167.47" x2="256.48" y2="361.72" xlink:href="#b"/><linearGradient id="l" x1="243.64" y1="167.47" x2="243.64" y2="361.72" xlink:href="#b"/><linearGradient id="m" x1="240.36" y1="167.47" x2="240.36" y2="361.72" xlink:href="#b"/><linearGradient id="n" x1="238.88" y1="167.47" x2="238.88" y2="361.72" xlink:href="#b"/><linearGradient id="o" x1="247.68" y1="167.47" x2="247.68" y2="361.72" xlink:href="#b"/><linearGradient id="p" x1="247.68" y1="167.47" x2="247.68" y2="361.72" xlink:href="#b"/><linearGradient id="q" x1="247.68" y1="167.47" x2="247.68" y2="361.72" xlink:href="#b"/><linearGradient id="r" x1="232.99" y1="167.47" x2="232.99" y2="361.72" xlink:href="#b"/><linearGradient id="s" x1="244.69" y1="167.47" x2="244.69" y2="361.72" xlink:href="#b"/><linearGradient id="t" x1="267.11" y1="167.47" x2="267.11" y2="361.72" gradientTransform="translate(-107.59 212.85) rotate(-36.7)" xlink:href="#b"/><linearGradient id="u" x1="267.66" y1="167.47" x2="267.66" y2="361.72" gradientTransform="translate(-106.64 213.21) rotate(-36.7)" xlink:href="#b"/><linearGradient id="v" x1="245.73" y1="167.47" x2="245.73" y2="361.72" xlink:href="#b"/><linearGradient id="w" x1="245.73" y1="167.47" x2="245.73" y2="361.72" xlink:href="#b"/><linearGradient id="x" x1="246.28" y1="167.47" x2="246.28" y2="361.72" xlink:href="#b"/><linearGradient id="y" x1="246.28" y1="167.46" x2="246.28" y2="361.72" xlink:href="#b"/><linearGradient id="z" x1="246.28" y1="167.47" x2="246.28" y2="361.72" xlink:href="#b"/><linearGradient id="aa" x1="246.28" y1="167.46" x2="246.28" y2="361.72" xlink:href="#b"/><linearGradient id="ab" x1="246.28" y1="167.47" x2="246.28" y2="361.72" xlink:href="#b"/><linearGradient id="ac" x1="246.28" y1="167.47" x2="246.28" y2="361.72" xlink:href="#b"/><linearGradient id="ad" x1="170.96" y1="167.47" x2="170.96" y2="361.72" gradientTransform="translate(456.57 108.76) rotate(86.98)" xlink:href="#b"/><linearGradient id="ae" x1="181.98" y1="167.47" x2="181.98" y2="361.72" gradientTransform="translate(15.76 -9.16) rotate(3.01)" xlink:href="#b"/><linearGradient id="af" x1="176.47" y1="167.47" x2="176.47" y2="361.72" xlink:href="#b"/><linearGradient id="ag" x1="176.47" y1="167.47" x2="176.47" y2="361.72" xlink:href="#b"/><linearGradient id="ah" x1="176.43" y1="167.46" x2="176.43" y2="361.72" xlink:href="#b"/><linearGradient id="ai" x1="176.46" y1="167.47" x2="176.46" y2="361.72" xlink:href="#b"/><linearGradient id="aj" x1="176.47" y1="167.47" x2="176.47" y2="361.72" xlink:href="#b"/><linearGradient id="ak" x1="176.47" y1="167.47" x2="176.47" y2="361.72" xlink:href="#b"/><linearGradient id="al" x1="176.47" y1="167.47" x2="176.47" y2="361.72" xlink:href="#b"/><linearGradient id="am" x1="176.47" y1="167.47" x2="176.47" y2="361.72" xlink:href="#b"/><linearGradient id="an" x1="176.57" y1="167.46" x2="176.57" y2="361.73" xlink:href="#b"/><linearGradient id="ao" x1="176.57" y1="167.47" x2="176.57" y2="361.72" xlink:href="#b"/><linearGradient id="ap" x1="176.47" y1="167.47" x2="176.47" y2="361.72" xlink:href="#b"/><linearGradient id="aq" x1="176.47" y1="167.47" x2="176.47" y2="361.72" xlink:href="#b"/><linearGradient id="ar" x1="176.47" y1="167.46" x2="176.47" y2="361.72" xlink:href="#b"/><linearGradient id="as" x1="176.47" y1="167.47" x2="176.47" y2="361.72" xlink:href="#b"/><linearGradient id="at" x1="318.31" y1="167.47" x2="318.31" y2="361.72" gradientTransform="translate(596.15 -38.38) rotate(86.98)" xlink:href="#b"/><linearGradient id="au" x1="329.32" y1="167.47" x2="329.32" y2="361.72" gradientTransform="translate(15.97 -16.91) rotate(3.01)" xlink:href="#b"/><linearGradient id="av" x1="323.82" y1="167.47" x2="323.82" y2="361.72" xlink:href="#b"/><linearGradient id="aw" x1="323.82" y1="167.47" x2="323.82" y2="361.72" xlink:href="#b"/><linearGradient id="ax" x1="323.78" y1="167.46" x2="323.78" y2="361.72" xlink:href="#b"/><linearGradient id="ay" x1="323.81" y1="167.47" x2="323.81" y2="361.72" xlink:href="#b"/><linearGradient id="az" x1="323.82" y1="167.47" x2="323.82" y2="361.72" xlink:href="#b"/><linearGradient id="ba" x1="323.82" y1="167.47" x2="323.82" y2="361.72" xlink:href="#b"/><linearGradient id="bb" x1="323.82" y1="167.47" x2="323.82" y2="361.72" xlink:href="#b"/><linearGradient id="bc" x1="323.82" y1="167.47" x2="323.82" y2="361.72" xlink:href="#b"/><linearGradient id="bd" x1="323.92" y1="167.46" x2="323.92" y2="361.73" xlink:href="#b"/><linearGradient id="be" x1="323.92" y1="167.47" x2="323.92" y2="361.72" xlink:href="#b"/><linearGradient id="bf" x1="323.82" y1="167.47" x2="323.82" y2="361.72" xlink:href="#b"/><linearGradient id="bg" x1="323.82" y1="167.47" x2="323.82" y2="361.72" xlink:href="#b"/><linearGradient id="bh" x1="323.82" y1="167.46" x2="323.82" y2="361.72" xlink:href="#b"/><linearGradient id="bi" x1="323.82" y1="167.47" x2="323.82" y2="361.72" xlink:href="#b"/><linearGradient id="bj" x1="250.2" y1="167.47" x2="250.2" y2="361.72" xlink:href="#b"/><linearGradient id="bk" x1="250.2" y1="167.47" x2="250.2" y2="361.72" xlink:href="#b"/><linearGradient id="bl" x1="357.9" y1="167.47" x2="357.9" y2="361.72" xlink:href="#b"/><linearGradient id="bm" x1="141.65" y1="167.47" x2="141.65" y2="361.72" xlink:href="#b"/><linearGradient id="bn" x1="356.8" y1="167.47" x2="356.8" y2="361.72" xlink:href="#b"/><linearGradient id="bo" x1="142.75" y1="167.47" x2="142.75" y2="361.72" xlink:href="#b"/><linearGradient id="bp" x1="249.78" y1="167.47" x2="249.78" y2="361.72" xlink:href="#b"/><linearGradient id="bq" x1="114.26" y1="167.47" x2="114.26" y2="361.72" xlink:href="#b"/><linearGradient id="br" x1="124.66" y1="167.46" x2="124.66" y2="361.72" xlink:href="#b"/><linearGradient id="bs" x1="135.55" y1="167.47" x2="135.55" y2="361.72" xlink:href="#b"/><linearGradient id="bt" x1="146.43" y1="167.47" x2="146.43" y2="361.72" xlink:href="#b"/><linearGradient id="bu" x1="157.31" y1="167.47" x2="157.31" y2="361.72" xlink:href="#b"/><linearGradient id="bv" x1="168.19" y1="167.47" x2="168.19" y2="361.72" xlink:href="#b"/><linearGradient id="bw" x1="189.96" y1="167.47" x2="189.96" y2="361.72" xlink:href="#b"/><linearGradient id="bx" x1="200.84" y1="167.47" x2="200.84" y2="361.72" xlink:href="#b"/><linearGradient id="by" x1="211.72" y1="167.47" x2="211.72" y2="361.72" xlink:href="#b"/><linearGradient id="bz" x1="222.6" y1="167.47" x2="222.6" y2="361.72" xlink:href="#b"/><linearGradient id="ca" x1="233.49" y1="167.47" x2="233.49" y2="361.72" xlink:href="#b"/><linearGradient id="cb" x1="244.37" y1="167.47" x2="244.37" y2="361.72" xlink:href="#b"/><linearGradient id="cc" x1="255.25" y1="167.47" x2="255.25" y2="361.72" xlink:href="#b"/><linearGradient id="cd" x1="266.13" y1="167.47" x2="266.13" y2="361.72" xlink:href="#b"/><linearGradient id="ce" x1="277.02" y1="167.47" x2="277.02" y2="361.72" xlink:href="#b"/><linearGradient id="cf" x1="287.9" y1="167.47" x2="287.9" y2="361.72" xlink:href="#b"/><linearGradient id="cg" x1="298.78" y1="167.47" x2="298.78" y2="361.72" xlink:href="#b"/><linearGradient id="ch" x1="309.66" y1="167.47" x2="309.66" y2="361.72" xlink:href="#b"/><linearGradient id="ci" x1="331.43" y1="167.47" x2="331.43" y2="361.72" xlink:href="#b"/><linearGradient id="cj" x1="342.31" y1="167.47" x2="342.31" y2="361.72" xlink:href="#b"/><linearGradient id="ck" x1="353.19" y1="167.47" x2="353.19" y2="361.72" xlink:href="#b"/><linearGradient id="cl" x1="364.07" y1="167.47" x2="364.07" y2="361.72" xlink:href="#b"/><linearGradient id="cm" x1="374.95" y1="167.46" x2="374.95" y2="361.72" xlink:href="#b"/><linearGradient id="cn" x1="385.29" y1="167.47" x2="385.29" y2="361.72" xlink:href="#b"/><linearGradient id="co" x1="399.05" y1="167.47" x2="399.05" y2="361.72" xlink:href="#b"/><linearGradient id="cp" x1="40.76" y1="167.47" x2="40.76" y2="361.72" xlink:href="#b"/><linearGradient id="cq" x1="40.76" y1="167.47" x2="40.76" y2="361.72" xlink:href="#b"/><linearGradient id="cr" x1="40.76" y1="167.47" x2="40.76" y2="361.72" xlink:href="#b"/><linearGradient id="cs" x1="40.76" y1="167.47" x2="40.76" y2="361.72" xlink:href="#b"/><linearGradient id="ct" x1="40.76" y1="167.47" x2="40.76" y2="361.72" xlink:href="#b"/><linearGradient id="cu" x1="40.76" y1="167.47" x2="40.76" y2="361.72" xlink:href="#b"/><linearGradient id="cv" x1="40.76" y1="167.47" x2="40.76" y2="361.72" xlink:href="#b"/><linearGradient id="cw" x1="40.76" y1="167.47" x2="40.76" y2="361.72" xlink:href="#b"/><linearGradient id="cx" x1="40.76" y1="167.47" x2="40.76" y2="361.72" xlink:href="#b"/><linearGradient id="cy" x1="462.11" y1="167.47" x2="462.11" y2="361.72" xlink:href="#b"/><linearGradient id="cz" x1="462.11" y1="167.47" x2="462.11" y2="361.72" xlink:href="#b"/><linearGradient id="da" x1="96.96" y1="167.47" x2="96.96" y2="361.72" xlink:href="#b"/></defs><rect y="366.96" width="500" height="133.04" style="fill:url(#b);"/><path d="m232.45,210.57h0c-3.04,0-5.5-2.46-5.5-5.5v-.4h11v.4c0,3.04-2.46,5.5-5.5,5.5Z" style="fill:url(#c);"/><path d="m232.46,191.72c.05,2.61-1.33,4.78-2.65,6.97-1.26,2.09-1.79,4.93.9,6.21,1.35.64,3.89.4,4.74-1,1.18-1.93.56-4.48-.15-6.46-.37-1.04-.83-2.06-1.36-3.04-.41-.77-1.2-1.78-1.49-2.68Z" style="fill:url(#d);"/><rect x="231.01" y="209.13" width="2.87" height="14.51" style="fill:url(#e);"/><path d="m229.6,213.52h2.84v6.46h-2.84c-1.07,0-1.94-.87-1.94-1.94v-2.58c0-1.07.87-1.94,1.94-1.94Z" style="fill:url(#f);"/><path d="m229.62,213.52h4.36c1.25,0,2.26,1.01,2.26,2.26v21.42h-6.62v-23.68h0Z" style="fill:url(#g);"/><polygon points="249.28 228.06 246.08 228.06 247.68 220.18 249.28 228.06" style="fill:url(#h);"/><polygon points="252.01 229.41 249.31 228.01 254.11 222.07 252.01 229.41" style="fill:url(#i);"/><polygon points="253.64 231.61 251.9 229.45 258.08 226.25 253.64 231.61" style="fill:url(#j);"/><polygon points="254.06 233.95 253.62 231.72 259.35 231.75 254.06 233.95" style="fill:url(#k);"/><polygon points="243.35 229.41 246.04 228.01 241.24 222.07 243.35 229.41" style="fill:url(#l);"/><polygon points="241.72 231.61 243.45 229.45 237.27 226.25 241.72 231.61" style="fill:url(#m);"/><polygon points="241.3 233.95 241.74 231.72 236.01 231.75 241.3 233.95" style="fill:url(#n);"/><path d="m247.68,227.12c-4.18,0-7.57,2.01-7.57,4.49,0,1.06.62,2.03,1.66,2.8-.08-.3-.13-.62-.13-.94,0-2.51,2.71-4.54,6.05-4.54s6.05,2.03,6.05,4.54c0,.32-.05.64-.13.94,1.03-.77,1.66-1.74,1.66-2.8,0-2.48-3.39-4.49-7.57-4.49Z" style="fill:url(#o);"/><polygon points="254.11 232.83 252.68 229.41 247.68 227.75 243 229.18 241.24 232.83 241.24 239.97 243.21 242.52 252.14 242.52 254.11 239.97 254.11 232.83" style="fill:url(#p);"/><rect x="244.02" y="241.78" width="7.31" height="6.36" style="fill:url(#q);"/><polygon points="236.24 232.8 229.62 232.8 227.11 235.91 227.11 241.78 238.88 241.78 238.88 235.91 236.24 232.8" style="fill:url(#r);"/><polygon points="238.88 241.78 242.73 245.95 256.85 245.95 262.23 251.34 262.23 292.92 259.69 295.46 259.69 306.31 257.56 308.44 257.56 331.3 236.52 331.3 236.52 326.41 233.11 326.41 233.11 312.27 230.99 312.27 230.99 267.93 235.21 263.71 235.21 259.32 232.41 256.52 232.41 248.37 227.15 243.12 227.15 241.25 238.88 241.78" style="fill:url(#s);"/><rect x="259.24" y="256.39" width="15.74" height="24.49" transform="translate(213.46 -106.38) rotate(36.7)" style="fill:url(#t);"/><path d="m257.09,263.75h19.78c1.25,0,2.27,1.02,2.27,2.27v2.7c0,1.25-1.02,2.27-2.27,2.27h-19.78v-7.25h0Z" transform="translate(212.91 -107.23) rotate(36.7)" style="fill:url(#u);"/><rect x="227.15" y="329.44" width="37.16" height="5.26" style="fill:url(#v);"/><rect x="227.15" y="341.24" width="37.16" height="19.38" style="fill:url(#w);"/><polygon points="268.65 336.93 223.92 336.93 226.47 334.7 266.1 334.7 268.65 336.93" style="fill:url(#x);"/><rect x="223.92" y="336.93" width="44.73" height="4.31" style="fill:url(#y);"/><polygon points="268.65 362.85 223.92 362.85 226.47 360.62 266.1 360.62 268.65 362.85" style="fill:url(#z);"/><rect x="223.92" y="362.85" width="44.73" height="2.15" style="fill:url(#aa);"/><polygon points="268.65 364.92 223.92 364.92 221.37 367.16 221.37 369.31 271.2 369.31 271.2 367.16 268.65 364.92" style="fill:url(#ab);"/><polygon points="271.2 369.31 221.37 369.31 218.81 371.54 218.81 373.7 273.75 373.7 273.75 371.54 271.2 369.31" style="fill:url(#ac);"/><rect x="138.75" y="293.59" width="64.43" height="2.88" transform="translate(-132.68 450.2) rotate(-86.98)" style="fill:url(#ad);"/><rect x="180.54" y="262.82" width="2.88" height="64.43" transform="translate(-15.26 9.98) rotate(-3.01)" style="fill:url(#ae);"/><path d="m184.36,327.08h-15.78l7.13-5.84-6.63-5.43h14.77l-6.63,5.43,7.13,5.84Zm-13.1-.96h10.41l-5.2-4.26-5.2,4.26Zm.51-9.35l4.7,3.85,4.7-3.85h-9.4Z" style="fill:url(#af);"/><path d="m182.21,316.67l-5.74-4.63-5.74,4.63-.6-.75,5.58-4.5-6.18-4.98h13.89l-6.18,4.98,5.58,4.5-.6.75Zm-9.96-9.26l4.22,3.4,4.22-3.4h-8.44Z" style="fill:url(#ag);"/><path d="m171.18,307.3l-.59-.76,5.25-4.12-6.01-4.41h13.19l-5.6,4.39,4.88,3.58-.57.77-5.09-3.74-5.47,4.29Zm1.58-8.33l3.86,2.84,3.62-2.84h-7.48Z" style="fill:url(#ah);"/><path d="m181.35,298.88l-4.88-3.67-4.88,3.67-.58-.77,4.66-3.5-5.45-4.09h12.49l-5.44,4.09,4.66,3.5-.58.77Zm-8.25-7.4l3.37,2.53,3.37-2.53h-6.74Z" style="fill:url(#ai);"/><path d="m171.93,291.39l-.55-.78,4.25-3-5.16-3.64h11.98l-5.16,3.64,4.25,3-.55.78-4.53-3.2-4.53,3.2Zm1.57-6.47l2.97,2.1,2.97-2.1h-5.94Z" style="fill:url(#aj);"/><path d="m180.69,284.84l-4.22-2.73-4.22,2.73-.52-.81,3.86-2.5-4.95-3.2h11.66l-4.95,3.2,3.86,2.5-.52.81Zm-6.8-5.55l2.58,1.67,2.58-1.67h-5.16Z" style="fill:url(#ak);"/><path d="m180.4,279.21l-3.93-2.72-3.93,2.72-.55-.79,3.63-2.51-4.62-3.2h10.93l-4.62,3.2,3.63,2.51-.55.79Zm-6.32-5.54l2.39,1.65,2.39-1.65h-4.78Z" style="fill:url(#al);"/><path d="m180.16,273.61l-3.69-2.11-3.69,2.11-.48-.83,3.2-1.83-4.55-2.61h11.04l-4.55,2.61,3.2,1.83-.48.83Zm-5.6-4.31l1.91,1.09,1.91-1.09h-3.82Z" style="fill:url(#am);"/><rect x="172.65" y="265.53" width="7.84" height="1.92" style="fill:url(#an);"/><rect x="172.65" y="262.75" width="7.84" height="1.92" style="fill:url(#ao);"/><polygon points="181.75 263.55 171.19 263.55 168.53 258.42 184.4 258.42 181.75 263.55" style="fill:url(#ap);"/><polygon points="181.75 251.86 171.19 251.86 168.53 256.98 184.4 256.98 181.75 251.86" style="fill:url(#aq);"/><polygon points="178.82 249.58 174.12 249.58 172.93 251.86 180 251.86 178.82 249.58" style="fill:url(#ar);"/><rect x="168.53" y="256.98" width="15.87" height="1.44" style="fill:url(#as);"/><rect x="286.09" y="293.59" width="64.43" height="2.88" transform="translate(6.9 597.34) rotate(-86.98)" style="fill:url(#at);"/><rect x="327.88" y="262.82" width="2.88" height="64.43" transform="translate(-15.06 17.72) rotate(-3.01)" style="fill:url(#au);"/><path d="m331.71,327.08h-15.78l7.13-5.84-6.63-5.43h14.77l-6.63,5.43,7.13,5.84Zm-13.1-.96h10.41l-5.2-4.26-5.2,4.26Zm.51-9.35l4.7,3.85,4.7-3.85h-9.4Z" style="fill:url(#av);"/><path d="m329.56,316.67l-5.74-4.63-5.74,4.63-.6-.75,5.58-4.5-6.18-4.98h13.89l-6.18,4.98,5.58,4.5-.6.75Zm-9.96-9.26l4.22,3.4,4.22-3.4h-8.44Z" style="fill:url(#aw);"/><path d="m318.53,307.3l-.59-.76,5.25-4.12-6.01-4.41h13.19l-5.6,4.39,4.88,3.58-.57.77-5.09-3.74-5.47,4.29Zm1.58-8.33l3.86,2.84,3.62-2.84h-7.48Z" style="fill:url(#ax);"/><path d="m328.7,298.88l-4.88-3.67-4.88,3.67-.58-.77,4.65-3.5-5.45-4.09h12.49l-5.44,4.09,4.66,3.5-.58.77Zm-8.25-7.4l3.37,2.53,3.37-2.53h-6.74Z" style="fill:url(#ay);"/><path d="m319.28,291.39l-.55-.78,4.25-3-5.16-3.64h11.98l-5.16,3.64,4.25,3-.55.78-4.53-3.2-4.53,3.2Zm1.57-6.47l2.97,2.1,2.97-2.1h-5.94Z" style="fill:url(#az);"/><path d="m328.03,284.84l-4.22-2.73-4.22,2.73-.52-.81,3.86-2.5-4.95-3.2h11.66l-4.95,3.2,3.86,2.5-.52.81Zm-6.8-5.55l2.58,1.67,2.58-1.67h-5.16Z" style="fill:url(#ba);"/><path d="m327.75,279.21l-3.93-2.72-3.93,2.72-.55-.79,3.63-2.51-4.62-3.2h10.93l-4.62,3.2,3.63,2.51-.55.79Zm-6.32-5.54l2.39,1.65,2.39-1.65h-4.78Z" style="fill:url(#bb);"/><path d="m327.5,273.61l-3.69-2.11-3.69,2.11-.48-.83,3.2-1.83-4.55-2.61h11.04l-4.55,2.61,3.2,1.83-.48.83Zm-5.6-4.31l1.91,1.09,1.91-1.09h-3.82Z" style="fill:url(#bc);"/><rect x="320" y="265.53" width="7.84" height="1.92" style="fill:url(#bd);"/><rect x="320" y="262.75" width="7.84" height="1.92" style="fill:url(#be);"/><polygon points="329.1 263.55 318.54 263.55 315.88 258.42 331.75 258.42 329.1 263.55" style="fill:url(#bf);"/><polygon points="329.1 251.86 318.54 251.86 315.88 256.98 331.75 256.98 329.1 251.86" style="fill:url(#bg);"/><polygon points="326.17 249.58 321.46 249.58 320.28 251.86 327.35 251.86 326.17 249.58" style="fill:url(#bh);"/><rect x="315.88" y="256.98" width="15.87" height="1.44" style="fill:url(#bi);"/><path d="m320.18,263.03l-.47-.11-.45-.16c-6.46,18.68-20.01,33.46-37.01,41.77-9.3,3.47-20.05,5.3-32.05,5.3s-21.85-1.56-30.73-4.66c-17.62-8.18-31.71-23.24-38.33-42.41l-.45.16-.46.13s0,.02,0,.03h0c4.72,16.65,13.67,29.13,26.61,37.11,3.59,2.21,7.5,4.08,11.7,5.61,9.69,4.59,20.46,7.13,31.66,7.13s22.46-2.65,32.32-7.45c19.63-7.3,32.86-21.9,37.66-42.44Zm-133.64,13.64c5.79,9.75,13.69,17.94,22.98,24.06-9.92-5.52-17.59-13.56-22.98-24.06Zm63.66,35.29c-7.61,0-15.01-1.19-22.01-3.4,6.74,1.48,14.08,2.24,22.01,2.24s15.65-.82,22.58-2.41c-7.16,2.33-14.76,3.58-22.58,3.58Zm41.59-11.85c10.21-6.94,18.67-16.41,24.41-27.71-4.88,11.98-13.2,21.35-24.41,27.71Z" style="fill:url(#bj);"/><path d="m181.97,312.44v14.64h136.47v-14.64h-136.47Zm125.04,2.78h7.9l-3.95,3.28-3.95-3.28Zm2.48,4.5l-4.67,3.88-4.67-3.88,4.67-3.88,4.67,3.88Zm-10.81-1.22l-3.95-3.28h7.9l-3.95,3.28Zm-1.47,1.22l-4.59,3.81-4.59-3.81,4.59-3.81,4.59,3.81Zm-10.64-1.22l-3.95-3.28h7.9l-3.95,3.28Zm-1.47,1.22l-4.79,3.98-4.79-3.98,4.79-3.98,4.79,3.98Zm-11.05-1.22l-3.95-3.28h7.9l-3.95,3.28Zm-1.47,1.22l-4.46,3.71-4.46-3.71,4.46-3.71,4.46,3.71Zm-10.4-1.22l-3.95-3.28h7.9l-3.95,3.28Zm-1.47,1.22l-4.75,3.95-4.75-3.95,4.75-3.95,4.75,3.95Zm-10.97-1.22l-3.95-3.28h7.9l-3.95,3.28Zm-1.47,1.22l-4.55,3.78-4.55-3.78,4.55-3.78,4.55,3.78Zm-10.57-1.22l-3.95-3.28h7.9l-3.95,3.28Zm-1.47,1.22l-4.67,3.88-4.67-3.88,4.67-3.88,4.67,3.88Zm-10.81-1.22l-3.95-3.28h7.89l-3.95,3.28Zm-1.47,1.22l-4.23,3.52-4.23-3.52,4.23-3.52,4.23,3.52Zm-9.93-1.22l-3.95-3.28h7.89l-3.95,3.28Zm-1.47,1.22l-4.67,3.88-4.67-3.88,4.67-3.88,4.67,3.88Zm-10.81-1.22l-3.95-3.28h7.9l-3.95,3.28Zm-1.47,1.22l-4.63,3.85-4.63-3.85,4.63-3.85,4.63,3.85Zm-10.72-1.22l-3.95-3.28h7.9l-3.95,3.28Zm-1.47,1.22l-3.23,2.68v-5.37l3.23,2.68Zm1.47,1.22l4.05,3.37h-8.1l4.05-3.37Zm12.19,0l4.05,3.37h-8.1l4.05-3.37Zm12.28,0l4.05,3.37h-8.1l4.05-3.37Zm11.4,0l4.05,3.37h-8.1l4.05-3.37Zm12.28,0l4.05,3.37h-8.1l4.05-3.37Zm12.04,0l4.05,3.37h-8.1l4.05-3.37Zm12.44,0l4.05,3.37h-8.1l4.05-3.37Zm11.87,0l4.05,3.37h-8.1l4.05-3.37Zm12.52,0l4.05,3.37h-8.1l4.05-3.37Zm12.11,0l4.05,3.37h-8.1l4.05-3.37Zm12.28,0l4.05,3.37h-8.1l4.05-3.37Zm1.47-1.22l3.13-2.6v5.2l-3.13-2.6Z" style="fill:url(#bk);"/><path d="m330.03,312.44v14.64h55.74v-14.64h-55.74Zm47.41,2.78l-3.95,3.28-3.95-3.28h7.89Zm-11.4,0l-3.95,3.28-3.95-3.28h7.89Zm-12.28,0l-3.95,3.28-3.95-3.28h7.9Zm-12.19,0l-3.95,3.28-3.95-3.28h7.9Zm-8.65,1.82l3.23,2.68-3.23,2.68v-5.37Zm.65,7.27l4.05-3.37,4.05,3.37h-8.1Zm5.52-4.59l4.63-3.85,4.63,3.85-4.63,3.85-4.63-3.85Zm6.67,4.59l4.05-3.37,4.05,3.37h-8.1Zm5.52-4.59l4.67-3.88,4.67,3.88-4.67,3.88-4.67-3.88Zm6.77,4.59l4.05-3.37,4.05,3.37h-8.1Zm5.52-4.59l4.23-3.52,4.23,3.52-4.23,3.52-4.23-3.52Zm5.88,4.59l4.05-3.37,4.05,3.37h-8.1Zm5.52-4.59l4.67-3.88,2.77,2.3v3.16l-2.77,2.3-4.67-3.88Zm7.44,4.59h-.68l.68-.56v.56Zm0-8.61l-.58-.48h.58v.48Z" style="fill:url(#bl);"/><path d="m113.78,312.4v14.64h55.74v-14.64h-55.74Zm16.23,2.78l-3.95,3.28-3.95-3.28h7.89Zm11.4,0l-3.95,3.28-3.95-3.28h7.89Zm12.28,0l-3.95,3.28-3.95-3.28h7.9Zm12.19,0l-3.95,3.28-3.95-3.28h7.9Zm.75,7.19l-3.23-2.68,3.23-2.68v5.37Zm-8.75,1.9l4.05-3.37,4.05,3.37h-8.1Zm-2.05-.74l-4.63-3.85,4.63-3.85,4.63,3.85-4.63,3.85Zm-10.15.74l4.05-3.37,4.05,3.37h-8.1Zm-2.09-.7l-4.67-3.88,4.67-3.88,4.67,3.88-4.67,3.88Zm-10.19.7l4.05-3.37,4.05,3.37h-8.1Zm-1.65-1.07l-4.23-3.52,4.23-3.52,4.23,3.52-4.23,3.52Zm-9.75,1.07l4.05-3.37,4.05,3.37h-8.1Zm-2.09-.7l-2.77-2.3v-3.16l2.77-2.3,4.67,3.88-4.67,3.88Zm-2.77.14l.68.56h-.68v-.56Zm0-8.53h.58l-.58.48v-.48Z" style="fill:url(#bm);"/><path d="m385.77,311.06c-3.39-.57-6.72-1.36-9.96-2.39,3.18.7,6.51,1.23,9.96,1.61v-.95c-6.78-.72-13.02-2.06-18.68-4.04-17.62-8.18-31.71-23.24-38.33-42.41l-.45.16-.46.13s0,.02,0,.03h0c4.72,16.65,13.67,29.13,26.61,37.11,3.59,2.21,7.5,4.08,11.7,5.61,6.16,2.92,12.75,5,19.61,6.14v-.98Zm-51.61-34.27c5.79,9.75,13.69,17.94,22.98,24.06-9.92-5.52-17.59-13.56-22.98-24.06Z" style="fill:url(#bn);"/><path d="m113.78,312.04c6.86-1.13,13.45-3.22,19.61-6.14,4.21-1.52,8.11-3.39,11.7-5.61,12.94-7.97,21.89-20.46,26.61-37.11h0s0-.02,0-.03l-.46-.13-.45-.16c-6.63,19.17-20.71,34.23-38.33,42.41-5.67,1.98-11.9,3.33-18.68,4.04v.95c3.45-.37,6.78-.9,9.96-1.61-3.24,1.02-6.57,1.82-9.96,2.39v.98Zm28.63-11.2c9.29-6.11,17.19-14.31,22.98-24.06-5.39,10.5-13.06,18.54-22.98,24.06Z" style="fill:url(#bo);"/><rect x="113.78" y="327.04" width="271.99" height="3.86" style="fill:url(#bp);"/><rect x="113.78" y="310.06" width=".96" height="3.56" style="fill:url(#bq);"/><rect x="124.18" y="307.79" width=".96" height="5.83" style="fill:url(#br);"/><rect x="135.07" y="304.28" width=".96" height="9.34" style="fill:url(#bs);"/><rect x="145.95" y="297.29" width=".96" height="16.32" style="fill:url(#bt);"/><rect x="156.83" y="287.01" width=".96" height="26.61" style="fill:url(#bu);"/><rect x="167.71" y="270.39" width=".96" height="43.23" style="fill:url(#bv);"/><rect x="189.48" y="280.96" width=".96" height="32.65" style="fill:url(#bw);"/><rect x="200.36" y="293.29" width=".96" height="20.33" style="fill:url(#bx);"/><rect x="211.24" y="301.45" width=".96" height="12.16" style="fill:url(#by);"/><rect x="222.12" y="306.45" width=".96" height="7.17" style="fill:url(#bz);"/><rect x="233.01" y="309.11" width=".96" height="4.51" style="fill:url(#ca);"/><rect x="243.89" y="310.17" width=".96" height="3.44" style="fill:url(#cb);"/><rect x="254.77" y="310.17" width=".96" height="3.44" style="fill:url(#cc);"/><rect x="265.65" y="309.11" width=".96" height="4.51" style="fill:url(#cd);"/><rect x="276.53" y="307.3" width=".96" height="6.31" style="fill:url(#ce);"/><rect x="287.42" y="302.66" width=".96" height="10.96" style="fill:url(#cf);"/><rect x="298.3" y="294.01" width=".96" height="19.61" style="fill:url(#cg);"/><rect x="309.18" y="282.01" width=".96" height="31.61" style="fill:url(#ch);"/><rect x="330.95" y="270.97" width=".96" height="42.64" style="fill:url(#ci);"/><rect x="341.83" y="287.46" width=".96" height="26.16" style="fill:url(#cj);"/><rect x="352.71" y="297.81" width=".96" height="15.8" style="fill:url(#ck);"/><rect x="363.59" y="304.61" width=".96" height="9" style="fill:url(#cl);"/><rect x="374.47" y="308.14" width=".96" height="5.48" style="fill:url(#cm);"/><rect x="384.81" y="309.33" width=".96" height="4.28" style="fill:url(#cn);"/><polygon points="430.11 362.8 430.11 346.07 425.68 346.07 425.68 336.52 419.53 336.52 419.53 246.75 416.29 246.75 416.29 232.41 412.96 232.41 412.96 218.84 404 209.88 404 194.01 399.95 189.96 399.95 159.71 398.15 159.71 398.15 189.96 394.1 194.01 394.1 209.88 385.14 218.84 385.14 232.41 381.82 232.41 381.82 246.75 378.57 246.75 378.57 336.52 372.43 336.52 372.43 346.07 367.99 346.07 367.99 362.8 363.55 362.8 363.55 369.63 399.05 369.63 434.55 369.63 434.55 362.8 430.11 362.8" style="fill:url(#co);"/><rect x="16.88" y="266.86" width="47.76" height="109.41" style="fill:url(#cp);"/><rect x="21.98" y="239.94" width="37.56" height="37.56" style="fill:url(#cq);"/><rect x="25.34" y="223.45" width="30.83" height="19.97" style="fill:url(#cr);"/><rect x="28.6" y="220.41" width="24.31" height="6.51" style="fill:url(#cs);"/><rect x="33.3" y="215.2" width="14.91" height="7.09" style="fill:url(#ct);"/><rect x="35.4" y="210.86" width="10.71" height="5.64" style="fill:url(#cu);"/><rect x="37.46" y="207.09" width="6.58" height="6.58" style="fill:url(#cv);"/><rect x="38.22" y="193.92" width="5.07" height="14.18" style="fill:url(#cw);"/><rect x="39.54" y="172.21" width="2.42" height="22.43" style="fill:url(#cx);"/><rect x="444.02" y="259.59" width="36.18" height="116.77" style="fill:url(#cy);"/><polygon points="476.4 263.08 447.83 263.08 462.11 228.96 476.4 263.08" style="fill:url(#cz);"/><polygon points="121.05 386.2 72.86 386.2 72.86 262.67 96.96 262.67 121.05 241.84 121.05 386.2" style="fill:url(#da);"/></svg>